<!--?xml version="1.0" standalone="no"?-->
              <svg id="sw-js-blob-svg" viewBox="0 0 100 100" xmlns="http://www.w3.org/2000/svg" version="1.1">
                    <defs> 
                        <linearGradient id="sw-gradient" x1="0" x2="1" y1="1" y2="0">
                            <stop id="stop1" stop-color="rgba(158, 0, 255, 1)" offset="0%"></stop>
                            <stop id="stop2" stop-color="rgba(158, 0, 255, 1)" offset="100%"></stop>
                        </linearGradient>
                    </defs>
                <path fill="url(#sw-gradient)" d="M23,-35.3C28.5,-32.2,30.9,-23.7,33.9,-15.9C36.9,-8,40.6,-0.8,41.1,6.9C41.6,14.7,38.9,23,32.7,25.9C26.5,28.9,16.7,26.3,9.1,26.6C1.4,26.9,-4.2,30.1,-10.9,31C-17.7,31.8,-25.6,30.4,-30.7,25.9C-35.8,21.3,-38.2,13.6,-35.3,7.5C-32.5,1.4,-24.6,-3.1,-19.2,-6.3C-13.9,-9.5,-11.2,-11.4,-8.5,-15.7C-5.7,-20.1,-2.8,-26.9,2.9,-31.4C8.7,-36,17.4,-38.3,23,-35.3Z" width="100%" height="100%" transform="translate(50 50)" stroke-width="0" style="transition: all 0.3s ease 0s;"></path>
              </svg>