<!--?xml version="1.0" standalone="no"?-->
              <svg id="sw-js-blob-svg" viewBox="0 0 100 100" xmlns="http://www.w3.org/2000/svg" version="1.1">
                    <defs> 
                        <linearGradient id="sw-gradient" x1="0" x2="1" y1="1" y2="0">
                            <stop id="stop1" stop-color="rgba(158, 0, 255, 1)" offset="0%"></stop>
                            <stop id="stop2" stop-color="rgba(158, 0, 255, 1)" offset="100%"></stop>
                        </linearGradient>
                    </defs>
                <path fill="url(#sw-gradient)" d="M20.8,-23.8C28.6,-18.3,37.6,-13.3,38.8,-6.7C40.1,-0.2,33.6,7.7,28.4,16.1C23.2,24.4,19.2,33.1,12.9,35.4C6.5,37.8,-2.1,33.8,-10.7,30.3C-19.3,26.8,-27.8,23.9,-31.1,18C-34.5,12.2,-32.6,3.4,-31.2,-5.7C-29.8,-14.7,-28.9,-24,-23.8,-29.9C-18.7,-35.8,-9.3,-38.3,-1.4,-36.7C6.5,-35,13.1,-29.2,20.8,-23.8Z" width="100%" height="100%" transform="translate(50 50)" stroke-width="0" style="transition: all 0.3s ease 0s;"></path>
              </svg>