<!--?xml version="1.0" standalone="no"?-->
              <svg id="sw-js-blob-svg" viewBox="0 0 100 100" xmlns="http://www.w3.org/2000/svg" version="1.1">
                    <defs> 
                        <linearGradient id="sw-gradient" x1="0" x2="1" y1="1" y2="0">
                            <stop id="stop1" stop-color="rgba(158, 0, 255, 1)" offset="0%"></stop>
                            <stop id="stop2" stop-color="rgba(158, 0, 255, 1)" offset="100%"></stop>
                        </linearGradient>
                    </defs>
                <path fill="url(#sw-gradient)" d="M26.3,-33.6C31.5,-27,31.2,-16.2,31.6,-6.6C32.1,3,33.3,11.5,30.2,18C27.1,24.6,19.7,29.2,11.6,32.3C3.5,35.4,-5.2,36.9,-14.3,35.4C-23.4,33.8,-32.9,29.1,-36.3,21.7C-39.8,14.2,-37.3,4,-33.7,-4.2C-30.1,-12.4,-25.5,-18.6,-19.7,-25C-13.9,-31.5,-7,-38.1,1.8,-40.2C10.6,-42.4,21.2,-40.1,26.3,-33.6Z" width="100%" height="100%" transform="translate(50 50)" stroke-width="0" style="transition: all 0.3s ease 0s;"></path>
              </svg>